<svg width="600" height="800" viewBox="0 0 600 800" fill="none" xmlns="http://www.w3.org/2000/svg">
  <rect width="600" height="800" rx="32" fill="#F6F1E8"/>
  <rect x="44" y="52" width="512" height="696" rx="24" fill="#F0E9DB" stroke="#D9D1C3"/>
  <rect x="80" y="110" width="260" height="14" rx="7" fill="#C6A75E"/>
  <rect x="80" y="146" width="360" height="10" rx="5" fill="#D5CDBF"/>
  <rect x="80" y="168" width="320" height="10" rx="5" fill="#D5CDBF"/>
  <rect x="80" y="220" width="420" height="8" rx="4" fill="#E0D8CB"/>
  <rect x="80" y="242" width="380" height="8" rx="4" fill="#E0D8CB"/>
  <rect x="80" y="264" width="340" height="8" rx="4" fill="#E0D8CB"/>
  <rect x="80" y="320" width="180" height="12" rx="6" fill="#C6A75E"/>
  <rect x="80" y="350" width="420" height="8" rx="4" fill="#E0D8CB"/>
  <rect x="80" y="372" width="360" height="8" rx="4" fill="#E0D8CB"/>
  <rect x="80" y="394" width="300" height="8" rx="4" fill="#E0D8CB"/>
  <rect x="80" y="450" width="440" height="120" rx="16" fill="#EAE3D6" stroke="#D9D1C3"/>
  <rect x="100" y="480" width="220" height="10" rx="5" fill="#C6A75E"/>
  <rect x="100" y="502" width="280" height="8" rx="4" fill="#D5CDBF"/>
</svg>
