<svg width="600" height="800" viewBox="0 0 600 800" fill="none" xmlns="http://www.w3.org/2000/svg">
  <rect width="600" height="800" rx="32" fill="#F6F2EA"/>
  <rect x="44" y="52" width="512" height="696" rx="24" fill="#F1EBDD" stroke="#D9D1C3"/>
  <rect x="80" y="110" width="240" height="16" rx="8" fill="#C6A75E"/>
  <rect x="80" y="150" width="360" height="10" rx="5" fill="#D5CDBF"/>
  <rect x="80" y="172" width="320" height="10" rx="5" fill="#D5CDBF"/>
  <rect x="80" y="214" width="400" height="8" rx="4" fill="#E0D8CB"/>
  <rect x="80" y="236" width="360" height="8" rx="4" fill="#E0D8CB"/>
  <rect x="80" y="258" width="340" height="8" rx="4" fill="#E0D8CB"/>
  <rect x="80" y="330" width="440" height="120" rx="16" fill="#EAE3D6" stroke="#D9D1C3"/>
  <rect x="100" y="360" width="220" height="10" rx="5" fill="#C6A75E"/>
  <rect x="100" y="382" width="300" height="8" rx="4" fill="#D5CDBF"/>
  <rect x="80" y="500" width="360" height="8" rx="4" fill="#E0D8CB"/>
  <rect x="80" y="522" width="300" height="8" rx="4" fill="#E0D8CB"/>
  <rect x="80" y="544" width="340" height="8" rx="4" fill="#E0D8CB"/>
</svg>
